<svg xmlns="http://www.w3.org/2000/svg" viewBox="0 0 512 512" width="512" height="512"><rect width="512" height="512" fill="#3d1a17"/><path d="M 69 103 H 295 V 172 H 161 V 218 H 275 V 287 H 161 V 399 H 69 Z" fill="#f3ede2"/><g transform="translate(221.7,303.0) scale(0.3243) translate(-69,-103)"><path d="M 262 150 C 244 122 214 110 182 110 C 132 110 106 138 106 174 C 106 214 140 232 182 247 C 232 265 262 284 262 328 C 262 370 230 394 182 394 C 144 394 112 378 94 350" stroke="#cccccc" stroke-width="78" fill="none" stroke-linecap="butt"/></g><rect x="352" y="144" width="32" height="240" rx="16" fill="#bf8729"/></svg>
