<svg xmlns="http://www.w3.org/2000/svg" viewBox="0 0 512 512" width="512" height="512"><rect width="512" height="512" fill="#f7c948"/><g transform="translate(256,256) scale(0.8) translate(-256,-256)"><path d="M 69 103 H 295 V 172 H 161 V 218 H 275 V 287 H 161 V 399 H 69 Z" fill="#1b211f"/><g transform="translate(221.7,303.0) scale(0.3243) translate(-69,-103)"><path d="M 262 150 C 244 122 214 110 182 110 C 132 110 106 138 106 174 C 106 214 140 232 182 247 C 232 265 262 284 262 328 C 262 370 230 394 182 394 C 144 394 112 378 94 350" stroke="#4a4440" stroke-width="78" fill="none" stroke-linecap="butt"/></g><path d="M382 128h44a10 10 0 0 1 10 10v40h40a10 10 0 0 1 10 10v44a10 10 0 0 1-10 10h-40v40a10 10 0 0 1-10 10h-44a10 10 0 0 1-10-10v-40h-40a10 10 0 0 1-10-10v-44a10 10 0 0 1 10-10h40v-40a10 10 0 0 1 10-10z" fill="#8a5a10"/></g></svg>